# xmcd CD database file
#
# Track frame offsets:
#	150
#	41782
#	87490
#	121075
#	153415
#	187260
#	207265
#	235812
#
# Disc length: 3500 seconds
#
# Revision: 0
# Processed by: cddbd v1.5.2PL0 Copyright (c) Steve Scherf et al.
# Submitted via: CDex 1.50
#
DISCID=6b0daa08
DTITLE=Kenny Barron - Canta Brasil
DYEAR=2002
DGENRE=Jazz
TTITLE0=Zumbi
TTITLE1=Clouds
TTITLE2=Paraty
TTITLE3=Until Then
TTITLE4=Bachiao
TTITLE5=Thoughts and Dreams
TTITLE6=This One
TTITLE7=Dona Maria
EXTD=YEAR: 2002
EXTT0=
EXTT1=
EXTT2=
EXTT3=
EXTT4=
EXTT5=
EXTT6=
EXTT7=
PLAYORDER=
